<svg width="54" height="43" viewBox="0 0 54 43" fill="none" xmlns="http://www.w3.org/2000/svg">
<g clip-path="url(#clip0_20_77)">
<path d="M46.6502 12.2279L45.3561 11.5679L29.4992 3.47723L26.3384 -0.00012207L23.2011 3.47611C19.4914 5.34948 7.35321 11.4792 7.35321 11.4792L6.0029 12.1616C6.98841 14.2045 8.32076 16.1261 9.66658 17.9333C12.8375 22.0987 16.8043 26.0194 21.8182 27.7895C20.2782 26.9915 18.8898 25.9611 17.6416 24.8016C15.1542 22.4792 13.1933 19.6675 11.5613 16.7031C10.9922 15.6648 10.4658 14.6052 9.97862 13.5288C12.0877 12.4636 25.1822 5.8501 26.3574 5.25744C27.5237 5.85234 40.4251 12.4355 42.6408 13.5658C39.5317 19.2847 34.7983 24.8094 28.6562 27.1621C27.9031 22.6173 26.9871 16.8827 26.3013 12.6679C26.1835 18.2375 26.0117 25.4739 25.9354 30.9807L27.8638 30.5957C31.6442 29.5327 34.9464 27.4775 37.7795 24.8599L40.9841 28.2699C40.708 28.6123 40.4251 28.949 40.1378 29.2824C36.4079 33.5544 31.9742 37.382 26.72 39.6202C26.6212 39.6606 26.4629 39.7223 26.3024 39.7863C26.0914 39.7201 25.8815 39.6505 25.7176 39.5876C24.5492 39.1802 23.3751 38.6414 22.2841 38.0555C19.2478 36.4189 16.5169 34.2818 14.0194 31.8943C12.7612 30.681 11.5478 29.407 10.4478 28.0455C12.7567 31.8382 15.6111 35.3088 18.9504 38.2553C21.0123 40.0647 23.3324 41.6529 25.8366 42.7922C25.8366 42.7922 26.3597 42.9999 26.3608 42.9999L26.8861 42.7945C29.525 41.8067 32.0112 40.407 34.292 38.7626C37.6718 36.3269 40.6799 33.4052 43.3121 30.1848C43.825 29.5596 44.4345 28.7257 44.9228 28.0612C44.6332 27.7536 41.6811 24.6108 39.8965 22.7116C42.0111 20.3589 43.8149 17.7043 45.3123 14.9824C45.7568 14.1742 46.2551 13.0798 46.6491 12.2279H46.6502Z" fill="#501516"/>
<path d="M44.1898 38.5394C43.4231 38.4507 42.6991 38.2329 42.0391 37.8232C42.0144 37.8075 41.9864 37.7974 41.9583 37.7839C41.9011 37.8042 41.0357 37.8367 40.8954 37.8154C41.5464 37.5494 42.4219 37.2171 42.7609 37.042C43.4635 36.6795 44.4344 36.089 44.6095 35.8949C44.5635 35.5334 44.5568 35.1675 44.5882 34.8016C44.6556 34.0159 44.8711 33.2706 45.2022 32.5567C45.4873 31.9427 45.8499 31.377 46.2708 30.8483C46.4874 30.5756 46.7153 30.3118 46.9656 30.0671C46.9891 30.0446 47.0082 30.0087 47.0621 30.0256C47.0666 30.0547 47.0756 30.0884 47.0767 30.1221C47.0823 30.3051 47.0935 30.488 47.0879 30.671C47.0352 32.2447 46.5469 33.6702 45.631 34.9509C45.5524 35.0609 45.4727 35.1686 45.3818 35.2944C46.1406 34.8386 48.0375 32.6274 48.3282 31.8675C48.317 31.8428 48.308 31.8148 48.2934 31.7901C47.9803 31.2389 47.7872 30.6463 47.6783 30.0256C47.4898 28.9503 47.5425 27.8839 47.822 26.8288C47.8882 26.5774 47.9679 26.3305 48.0701 26.0902C48.1789 25.8332 48.3159 25.5919 48.5123 25.3898C48.5348 25.3663 48.5662 25.3528 48.5999 25.3292C48.7121 25.5021 48.7873 25.6817 48.8648 25.859C48.9422 26.0375 49.0185 26.2171 49.087 26.4C49.1544 26.583 49.2172 26.7671 49.2711 26.9545C49.3261 27.1476 49.3755 27.3429 49.4148 27.5393C49.4529 27.7302 49.4832 27.9232 49.5057 28.1163C49.527 28.3071 49.5349 28.499 49.5506 28.7101C49.5966 28.6573 49.5966 28.6102 49.6056 28.5664C49.7728 27.7167 49.8379 26.858 49.8177 25.9926C49.8155 25.9174 49.793 25.859 49.747 25.7995C49.5966 25.6031 49.4439 25.4067 49.3059 25.2001C48.9287 24.64 48.6156 24.0451 48.3844 23.4098C48.1217 22.6881 47.9915 21.9394 47.9432 21.175C47.9354 21.0516 47.9432 20.927 47.9511 20.8035C47.9601 20.6733 47.9881 20.5453 48.0476 20.4275C48.0858 20.35 48.1251 20.2703 48.2126 20.2209C48.2463 20.2524 48.2766 20.2793 48.3058 20.3074C48.5381 20.5442 48.7402 20.8069 48.9265 21.0807C49.4585 21.8608 49.8256 22.7128 50.0186 23.6377C50.1286 24.1664 50.1904 24.6995 50.1343 25.2406C50.1275 25.3045 50.1309 25.3708 50.1354 25.4347C50.178 26.0543 50.1747 26.675 50.1264 27.2946C50.123 27.3339 50.1264 27.3732 50.1253 27.454C50.1578 27.3934 50.1735 27.371 50.1836 27.3451C50.2207 27.2587 50.2555 27.17 50.2936 27.0836C50.6483 26.2912 51.1534 25.6065 51.7674 24.997C52.0357 24.7298 52.3264 24.4874 52.6317 24.264C52.7933 24.145 52.964 24.0395 53.1334 23.9307C53.1694 23.9071 53.2075 23.879 53.2659 23.8801C53.2625 23.9194 53.2637 23.9486 53.258 23.9767C53.1492 24.6254 52.9741 25.2563 52.7103 25.8613C52.3455 26.6952 51.8381 27.4282 51.1478 28.0265C50.8066 28.3217 50.4351 28.5709 50.0231 28.7594C49.9861 28.7763 49.9502 28.7965 49.9086 28.8167C49.8873 28.9098 49.866 29.0008 49.8435 29.0928C49.8211 29.1848 49.7975 29.2758 49.7728 29.3678C49.7481 29.4587 49.7234 29.5508 49.6965 29.6406C49.6696 29.7315 49.6415 29.8213 49.6123 29.9111C49.5809 30.0065 49.5483 30.1019 49.5158 30.1962C49.4844 30.2848 49.4518 30.3746 49.4181 30.4622C49.3845 30.5498 49.3463 30.6373 49.3126 30.7249C49.2801 30.8102 49.2262 30.8887 49.2116 31.0111C49.2644 30.955 49.2969 30.9224 49.3283 30.8876C49.7044 30.4499 50.1354 30.0761 50.6113 29.7506C51.1153 29.4048 51.6574 29.131 52.2276 28.9143C52.6699 28.746 53.1245 28.6169 53.5914 28.5349C53.6588 28.5226 53.7283 28.5013 53.7979 28.5181C53.8148 28.5855 53.7665 28.6225 53.7407 28.6663C53.4287 29.1837 53.0706 29.6675 52.6575 30.1086C52.1738 30.625 51.6305 31.0672 51.0075 31.4084C50.2824 31.8058 49.5135 32.0538 48.6807 32.0841C48.6638 32.0841 48.647 32.092 48.6178 32.0987C48.1183 32.9361 47.5212 33.7094 46.8331 34.4402C46.896 34.439 46.9285 34.4166 46.9645 34.3975C47.1407 34.3021 47.3147 34.2 47.4954 34.1147C48.6526 33.5703 49.875 33.357 51.149 33.4176C51.2904 33.4243 51.4318 33.4412 51.5721 33.4569C51.5968 33.4591 51.6193 33.4793 51.6507 33.4951C51.617 33.531 51.5946 33.5579 51.5687 33.5826C51.1804 33.9575 50.7595 34.2898 50.3082 34.5838C49.6191 35.0317 48.8794 35.3651 48.0723 35.5402C47.3001 35.7074 46.5267 35.7299 45.7533 35.5402C45.7309 35.5346 45.7073 35.5357 45.6815 35.5334C45.5041 35.6726 45.3302 35.814 45.1517 35.9499C44.9687 36.089 44.7835 36.2271 44.595 36.3584C44.4109 36.4864 44.2189 36.6031 44.0326 36.7277C43.844 36.8534 43.6375 36.9511 43.4568 37.0948C43.5118 37.0981 43.5634 37.0925 43.6128 37.0824C43.9563 37.0162 44.302 36.9769 44.6511 36.9646C45.5457 36.9331 46.4189 37.0656 47.2709 37.335C47.5582 37.4259 47.84 37.5314 48.1127 37.6616C48.1576 37.6829 48.2081 37.6986 48.2508 37.7503C48.2048 37.7761 48.1711 37.7974 48.1352 37.8143C47.5908 38.0634 47.0307 38.2632 46.447 38.3968C45.7039 38.5674 44.953 38.6292 44.1942 38.5416L44.1898 38.5394Z" fill="#501516"/>
<path d="M9.60929 38.5394C10.3759 38.4507 11.0999 38.2329 11.7599 37.8232C11.7846 37.8075 11.8127 37.7974 11.8407 37.7839C11.898 37.8042 12.7634 37.8367 12.9037 37.8154C12.2527 37.5494 11.3772 37.2171 11.0382 37.042C10.3355 36.6795 9.3646 36.089 9.18949 35.8949C9.23551 35.5334 9.24225 35.1675 9.21082 34.8016C9.14347 34.0159 8.92796 33.2706 8.59684 32.5567C8.31174 31.9427 7.94918 31.377 7.52827 30.8483C7.31163 30.5756 7.08378 30.3118 6.83347 30.0671C6.8099 30.0446 6.79081 30.0087 6.73694 30.0256C6.73245 30.0547 6.72347 30.0884 6.72235 30.1221C6.71673 30.3051 6.70551 30.488 6.71112 30.671C6.76388 32.2447 7.25214 33.6702 8.16806 34.9509C8.24663 35.0609 8.32633 35.1686 8.41725 35.2944C7.65847 34.8386 5.76153 32.6274 5.47081 31.8675C5.48204 31.8428 5.49102 31.8148 5.50561 31.7901C5.81877 31.2389 6.01183 30.6463 6.12071 30.0256C6.30928 28.9503 6.25653 27.8839 5.97704 26.8288C5.91081 26.5774 5.83112 26.3305 5.72898 26.0902C5.6201 25.8332 5.48316 25.5919 5.28673 25.3898C5.26428 25.3663 5.23285 25.3528 5.19918 25.3292C5.08693 25.5021 5.01173 25.6817 4.93428 25.859C4.85683 26.0375 4.7805 26.2171 4.71203 26.4C4.64469 26.583 4.58183 26.7671 4.52795 26.9545C4.47295 27.1476 4.42356 27.3429 4.38428 27.5393C4.34612 27.7302 4.31581 27.9232 4.29336 28.1163C4.27203 28.3071 4.26418 28.499 4.24846 28.7101C4.20244 28.6573 4.20244 28.6102 4.19346 28.5664C4.02622 27.7167 3.96111 26.858 3.98132 25.9926C3.98356 25.9174 4.00601 25.859 4.05203 25.7995C4.20244 25.6031 4.35509 25.4067 4.49316 25.2001C4.8703 24.64 5.18346 24.0451 5.41469 23.4098C5.67734 22.6881 5.80755 21.9394 5.85581 21.175C5.86367 21.0516 5.85581 20.927 5.84796 20.8035C5.83898 20.6733 5.81091 20.5453 5.75142 20.4275C5.71326 20.35 5.67398 20.2703 5.58642 20.2209C5.55275 20.2524 5.52244 20.2793 5.49326 20.3074C5.26091 20.5442 5.05887 20.8069 4.87254 21.0807C4.3405 21.8608 3.97346 22.7128 3.7804 23.6377C3.6704 24.1664 3.60866 24.6995 3.66479 25.2406C3.67152 25.3045 3.66815 25.3708 3.66366 25.4347C3.62101 26.0543 3.62438 26.675 3.67264 27.2946C3.67601 27.3339 3.67264 27.3732 3.67377 27.454C3.64122 27.3934 3.6255 27.371 3.6154 27.3451C3.57836 27.2587 3.54356 27.17 3.5054 27.0836C3.1507 26.2912 2.6456 25.6065 2.03162 24.997C1.76335 24.7298 1.47264 24.4874 1.16733 24.264C1.0057 24.145 0.835086 24.0395 0.665596 23.9307C0.629678 23.9071 0.591514 23.879 0.533147 23.8801C0.536514 23.9194 0.535392 23.9486 0.541004 23.9767C0.649882 24.6254 0.824984 25.2563 1.08876 25.8613C1.45356 26.6952 1.96091 27.4282 2.65121 28.0265C2.99244 28.3217 3.36397 28.5709 3.77591 28.7594C3.81295 28.7763 3.84887 28.7965 3.8904 28.8167C3.91173 28.9098 3.93305 29.0008 3.9555 29.0928C3.97795 29.1848 4.00152 29.2758 4.02622 29.3678C4.05091 29.4587 4.0756 29.5508 4.10254 29.6406C4.12948 29.7315 4.15754 29.8213 4.18673 29.9111C4.21816 30.0065 4.25071 30.1019 4.28326 30.1962C4.31469 30.2848 4.34724 30.3746 4.38091 30.4622C4.41458 30.5498 4.45275 30.6373 4.48642 30.7249C4.51897 30.8102 4.57285 30.8887 4.58744 31.0111C4.53469 30.955 4.50214 30.9224 4.47071 30.8876C4.09469 30.4499 3.66366 30.0761 3.18774 29.7506C2.68376 29.4048 2.14162 29.131 1.57141 28.9143C1.12917 28.746 0.674576 28.6169 0.207636 28.5349C0.140289 28.5226 0.0706968 28.5013 0.0011048 28.5181C-0.015732 28.5855 0.0325334 28.6225 0.0583498 28.6663C0.370391 29.1837 0.728453 29.6675 1.14152 30.1086C1.62529 30.625 2.16856 31.0672 2.79152 31.4084C3.51662 31.8058 4.2855 32.0538 5.11836 32.0841C5.1352 32.0841 5.15204 32.092 5.18122 32.0987C5.68071 32.9361 6.27785 33.7094 6.96592 34.4402C6.90306 34.439 6.87051 34.4166 6.83459 34.3975C6.65837 34.3021 6.48439 34.2 6.30367 34.1147C5.14642 33.5703 3.92407 33.357 2.65009 33.4176C2.50866 33.4243 2.36723 33.4412 2.22693 33.4569C2.20223 33.4591 2.17978 33.4793 2.14835 33.4951C2.18203 33.531 2.20448 33.5579 2.23029 33.5826C2.61866 33.9575 3.03958 34.2898 3.49081 34.5838C4.17999 35.0317 4.91969 35.3651 5.72673 35.5402C6.49898 35.7074 7.27235 35.7299 8.04572 35.5402C8.06816 35.5346 8.09174 35.5357 8.11755 35.5334C8.2949 35.6726 8.46888 35.814 8.64735 35.9499C8.83031 36.089 9.01551 36.2271 9.20409 36.3584C9.38817 36.4864 9.58011 36.6031 9.76643 36.7277C9.95501 36.8534 10.1615 36.9511 10.3423 37.0948C10.2873 37.0981 10.2356 37.0925 10.1862 37.0824C9.84276 37.0162 9.49705 36.9769 9.14796 36.9646C8.25337 36.9331 7.3801 37.0656 6.52816 37.335C6.24081 37.4259 5.95908 37.5314 5.68632 37.6616C5.64142 37.6829 5.59091 37.6986 5.54826 37.7503C5.59428 37.7761 5.62795 37.7974 5.66387 37.8143C6.20826 38.0634 6.76837 38.2632 7.35204 38.3968C8.0951 38.5674 8.84602 38.6292 9.6048 38.5416L9.60929 38.5394Z" fill="#501516"/>
</g>
<defs>
<clipPath id="clip0_20_77">
<rect width="53.7991" height="43" fill="white"/>
</clipPath>
</defs>
</svg>
